<svg id="SvgjsSvg1001" width="820" height="529" xmlns="http://www.w3.org/2000/svg" version="1.1" xmlns:xlink="http://www.w3.org/1999/xlink" xmlns:svgjs="http://svgjs.com/svgjs"><defs id="SvgjsDefs1002"><marker id="SvgjsMarker1084" markerWidth="14" markerHeight="12" refX="16" refY="6" viewBox="0 0 14 12" orient="auto" markerUnits="userSpaceOnUse" stroke-dasharray="0,0"><path id="SvgjsPath1085" d="M1,1 L14,6 L1,11L1,1" fill="#ffffff" stroke="#323232" stroke-width="2"></path></marker><marker id="SvgjsMarker1088" markerWidth="14" markerHeight="12" refX="16" refY="6" viewBox="0 0 14 12" orient="auto" markerUnits="userSpaceOnUse" stroke-dasharray="0,0"><path id="SvgjsPath1089" d="M1,1 L14,6 L1,11L1,1" fill="#ffffff" stroke="#323232" stroke-width="2"></path></marker><marker id="SvgjsMarker1092" markerWidth="20" markerHeight="12" refX="0" refY="6" viewBox="0 0 20 12" orient="auto" markerUnits="userSpaceOnUse" stroke-dasharray="0,0"><path id="SvgjsPath1093" d="M2,6 L10,2 L18,6 L10,10L2,6" fill="#ffffff" stroke="#323232" stroke-width="2"></path></marker><marker id="SvgjsMarker1094" markerWidth="16" markerHeight="16" refX="11" refY="8" viewBox="0 0 16 16" orient="auto" markerUnits="userSpaceOnUse" stroke-dasharray="0,0"><path id="SvgjsPath1095" d="M0,0 L10,8 L0,16" fill="none" stroke="#323232" stroke-width="2"></path></marker><marker id="SvgjsMarker1098" markerWidth="16" markerHeight="16" refX="11" refY="8" viewBox="0 0 16 16" orient="auto" markerUnits="userSpaceOnUse" stroke-dasharray="0,0"><path id="SvgjsPath1099" d="M0,0 L10,8 L0,16" fill="none" stroke="#323232" stroke-width="2"></path></marker></defs><g id="SvgjsG1008" transform="translate(25,50.5)"><path id="SvgjsPath1009" d="M 0 4Q 0 0 4 0L 218 0Q 222 0 222 4L 222 86Q 222 90 218 90L 4 90Q 0 90 0 86Z" stroke="rgba(33,41,48,1)" stroke-width="2" fill-opacity="1" fill="#ffffff"></path><path id="SvgjsPath1010" d="M 0 30L 222 30M 0 60L 222 60" stroke="rgba(33,41,48,1)" stroke-width="2" fill="none"></path><path id="SvgjsPath1011" d="M 0 0L 222 0L 222 90L 0 90Z" stroke="none" fill="none"></path><g id="SvgjsG1012"><text id="SvgjsText1013" font-family="微软雅黑" text-anchor="middle" font-size="13px" width="202px" fill="#323232" font-weight="700" align="middle" lineHeight="125%" anchor="middle" family="微软雅黑" size="13px" weight="700" font-style="" opacity="1" y="4.375" transform="rotate(0)"><tspan id="SvgjsTspan1014" dy="16" x="111"><tspan id="SvgjsTspan1015" style="text-decoration:;">Client</tspan></tspan></text></g><g id="SvgjsG1016"><text id="SvgjsText1017" font-family="微软雅黑" text-anchor="start" font-size="13px" width="202px" fill="#323232" font-weight="400" align="middle" lineHeight="125%" anchor="start" family="微软雅黑" size="13px" weight="400" font-style="" opacity="1" y="34.375" transform="rotate(0)"></text></g><g id="SvgjsG1018"><text id="SvgjsText1019" font-family="微软雅黑" text-anchor="start" font-size="13px" width="202px" fill="#323232" font-weight="400" align="middle" lineHeight="125%" anchor="start" family="微软雅黑" size="13px" weight="400" font-style="" opacity="1" y="64.375" transform="rotate(0)"></text></g></g><g id="SvgjsG1020" transform="translate(365,25)"><path id="SvgjsPath1021" d="M 0 4Q 0 0 4 0L 226 0Q 230 0 230 4L 230 137Q 230 141 226 141L 4 141Q 0 141 0 137Z" stroke="rgba(33,41,48,1)" stroke-width="2" fill-opacity="1" fill="#ffffff"></path><path id="SvgjsPath1022" d="M 0 30L 230 30M 0 60L 230 60" stroke="rgba(33,41,48,1)" stroke-width="2" fill="none"></path><path id="SvgjsPath1023" d="M 0 0L 230 0L 230 141L 0 141Z" stroke="none" fill="none"></path><g id="SvgjsG1024"><text id="SvgjsText1025" font-family="微软雅黑" text-anchor="middle" font-size="13px" width="210px" fill="#323232" font-weight="700" align="middle" lineHeight="125%" anchor="middle" family="微软雅黑" size="13px" weight="700" font-style="" opacity="1" y="4.375" transform="rotate(0)"><tspan id="SvgjsTspan1026" dy="16" x="115"><tspan id="SvgjsTspan1027" style="text-decoration:;font-style: italic;">Component</tspan></tspan></text></g><g id="SvgjsG1028"><text id="SvgjsText1029" font-family="微软雅黑" text-anchor="start" font-size="13px" width="210px" fill="#323232" font-weight="400" align="middle" lineHeight="125%" anchor="start" family="微软雅黑" size="13px" weight="400" font-style="" opacity="1" y="34.375" transform="rotate(0)"></text></g><g id="SvgjsG1030"><text id="SvgjsText1031" font-family="微软雅黑" text-anchor="start" font-size="13px" width="210px" fill="#323232" font-weight="400" align="middle" lineHeight="125%" anchor="start" family="微软雅黑" size="13px" weight="400" font-style="" opacity="1" y="57.375" transform="rotate(0)"><tspan id="SvgjsTspan1032" dy="16" x="10"><tspan id="SvgjsTspan1033" style="text-decoration:;font-style: italic;">method1</tspan></tspan><tspan id="SvgjsTspan1034" dy="16" x="10"><tspan id="SvgjsTspan1035" style="text-decoration:;font-style: italic;">method2</tspan></tspan><tspan id="SvgjsTspan1036" dy="16" x="10"><tspan id="SvgjsTspan1037" style="text-decoration:;">add</tspan></tspan><tspan id="SvgjsTspan1038" dy="16" x="10"><tspan id="SvgjsTspan1039" style="text-decoration:;">remove</tspan></tspan><tspan id="SvgjsTspan1040" dy="16" x="10"><tspan id="SvgjsTspan1041" style="text-decoration:;">getChild</tspan></tspan></text></g></g><g id="SvgjsG1042" transform="translate(179,363)"><path id="SvgjsPath1043" d="M 0 4Q 0 0 4 0L 226 0Q 230 0 230 4L 230 89Q 230 93 226 93L 4 93Q 0 93 0 89Z" stroke="rgba(33,41,48,1)" stroke-width="2" fill-opacity="1" fill="#ffffff"></path><path id="SvgjsPath1044" d="M 0 30L 230 30M 0 60L 230 60" stroke="rgba(33,41,48,1)" stroke-width="2" fill="none"></path><path id="SvgjsPath1045" d="M 0 0L 230 0L 230 93L 0 93Z" stroke="none" fill="none"></path><g id="SvgjsG1046"><text id="SvgjsText1047" font-family="微软雅黑" text-anchor="middle" font-size="13px" width="210px" fill="#323232" font-weight="700" align="middle" lineHeight="125%" anchor="middle" family="微软雅黑" size="13px" weight="700" font-style="" opacity="1" y="4.375" transform="rotate(0)"><tspan id="SvgjsTspan1048" dy="16" x="115"><tspan id="SvgjsTspan1049" style="text-decoration:;">Leaf</tspan></tspan></text></g><g id="SvgjsG1050"><text id="SvgjsText1051" font-family="微软雅黑" text-anchor="start" font-size="13px" width="210px" fill="#323232" font-weight="400" align="middle" lineHeight="125%" anchor="start" family="微软雅黑" size="13px" weight="400" font-style="" opacity="1" y="34.375" transform="rotate(0)"></text></g><g id="SvgjsG1052"><text id="SvgjsText1053" font-family="微软雅黑" text-anchor="start" font-size="13px" width="210px" fill="#323232" font-weight="400" align="middle" lineHeight="125%" anchor="start" family="微软雅黑" size="13px" weight="400" font-style="" opacity="1" y="57.375" transform="rotate(0)"><tspan id="SvgjsTspan1054" dy="16" x="10"><tspan id="SvgjsTspan1055" style="text-decoration:;">method1</tspan></tspan><tspan id="SvgjsTspan1056" dy="16" x="10"><tspan id="SvgjsTspan1057" style="text-decoration:;">method2</tspan></tspan></text></g></g><g id="SvgjsG1058" transform="translate(535,363)"><path id="SvgjsPath1059" d="M 0 4Q 0 0 4 0L 226 0Q 230 0 230 4L 230 137Q 230 141 226 141L 4 141Q 0 141 0 137Z" stroke="rgba(33,41,48,1)" stroke-width="2" fill-opacity="1" fill="#ffffff"></path><path id="SvgjsPath1060" d="M 0 30L 230 30M 0 60L 230 60" stroke="rgba(33,41,48,1)" stroke-width="2" fill="none"></path><path id="SvgjsPath1061" d="M 0 0L 230 0L 230 141L 0 141Z" stroke="none" fill="none"></path><g id="SvgjsG1062"><text id="SvgjsText1063" font-family="微软雅黑" text-anchor="middle" font-size="13px" width="210px" fill="#323232" font-weight="700" align="middle" lineHeight="125%" anchor="middle" family="微软雅黑" size="13px" weight="700" font-style="" opacity="1" y="4.375" transform="rotate(0)"><tspan id="SvgjsTspan1064" dy="16" x="115"><tspan id="SvgjsTspan1065" style="text-decoration:;">Composite</tspan></tspan></text></g><g id="SvgjsG1066"><text id="SvgjsText1067" font-family="微软雅黑" text-anchor="start" font-size="13px" width="210px" fill="#323232" font-weight="400" align="middle" lineHeight="125%" anchor="start" family="微软雅黑" size="13px" weight="400" font-style="" opacity="1" y="34.375" transform="rotate(0)"><tspan id="SvgjsTspan1068" dy="16" x="10"><tspan id="SvgjsTspan1069" style="text-decoration:;">children</tspan></tspan></text></g><g id="SvgjsG1070"><text id="SvgjsText1071" font-family="微软雅黑" text-anchor="start" font-size="13px" width="210px" fill="#323232" font-weight="400" align="middle" lineHeight="125%" anchor="start" family="微软雅黑" size="13px" weight="400" font-style="" opacity="1" y="57.375" transform="rotate(0)"><tspan id="SvgjsTspan1072" dy="16" x="10"><tspan id="SvgjsTspan1073" style="text-decoration:;">method1</tspan></tspan><tspan id="SvgjsTspan1074" dy="16" x="10"><tspan id="SvgjsTspan1075" style="text-decoration:;">method2</tspan></tspan><tspan id="SvgjsTspan1076" dy="16" x="10"><tspan id="SvgjsTspan1077" style="text-decoration:;">add</tspan></tspan><tspan id="SvgjsTspan1078" dy="16" x="10"><tspan id="SvgjsTspan1079" style="text-decoration:;">remove</tspan></tspan><tspan id="SvgjsTspan1080" dy="16" x="10"><tspan id="SvgjsTspan1081" style="text-decoration:;">getChild</tspan></tspan></text></g></g><g id="SvgjsG1082"><path id="SvgjsPath1083" d="M294 362L294 264.5L480 264.5L480 169.60000000000002" stroke="#323232" stroke-width="2" fill="none" marker-end="url(#SvgjsMarker1084)"></path></g><g id="SvgjsG1086"><path id="SvgjsPath1087" d="M650 362L650 264.5L480 264.5L480 169.60000000000002" stroke="#323232" stroke-width="2" fill="none" marker-end="url(#SvgjsMarker1088)"></path></g><g id="SvgjsG1090"><path id="SvgjsPath1091" d="M768 433.5L795 433.5L795 95.5L597 95.5" stroke="#323232" stroke-width="2" fill="none" marker-start="url(#SvgjsMarker1092)" marker-end="url(#SvgjsMarker1094)"></path></g><g id="SvgjsG1096"><path id="SvgjsPath1097" d="M248 95.5L306 95.5L306 95.5L363 95.5" stroke="#323232" stroke-width="2" fill="none" marker-end="url(#SvgjsMarker1098)"></path><rect id="SvgjsRect1100" width="29" height="16" x="283.2033898305085" y="87.5" fill="#ffffff"></rect><text id="SvgjsText1101" font-family="微软雅黑" text-anchor="middle" font-size="13px" width="29px" fill="#323232" font-weight="400" align="top" lineHeight="16px" anchor="middle" family="微软雅黑" size="13px" weight="400" font-style="" opacity="1" y="84.875" transform="rotate(0)"><tspan id="SvgjsTspan1102" dy="16" x="297.7033898305085"><tspan id="SvgjsTspan1103" style="text-decoration:;">Uses</tspan></tspan></text></g></svg>